<svg height="512" viewBox="0 0 60 60" width="512" xmlns="http://www.w3.org/2000/svg"><g id="Page-1" fill="none" fill-rule="evenodd"><g id="001---Sucking-Dummy" fill="rgb(0,0,0)" fill-rule="nonzero" transform="translate(-1 -1)"><path id="Shape" d="m2.266 52.444c.97344218 1.3374658 2.43598521 2.2360546 4.069 2.5.27426527.0388315.55100373.0575481.828.056 1.11060033.008742 2.19422453-.342059 3.089-1 .2551557-.1937303.4912273-.411385.705-.65 11.3877679 10.1822218 28.600244 10.2084583 40.019.061.2288468.265572.4860414.5053297.767.715.8953789.6623485 1.9812838 1.0167149 3.095 1.01.2768124-.0004015.5532219-.0211239.827-.062 3.3737875-.5701697 5.6997372-3.6967117 5.276-7.092-.1880834-1.3893184-.9236354-2.6458413-2.043-3.49-.3255079-.2417502-.6790788-.4432151-1.053-.6 1.4219267-3.2800249 2.1553983-6.8170261 2.155-10.392 0-11.656-7.707-21.97-19.228-25.869-.0976974-.43514142-.2345895-.86054438-.409-1.271-.7371205-1.60866173-1.9500242-2.95245441-3.475-3.85-4.2202435-2.42638195-9.5145689-1.91132134-13.188 1.283-1.1204208 1.02884982-1.9411621 2.34203584-2.375 3.8-11.581 3.883-19.325 14.215-19.325 25.907.00030126 3.5327652.71779086 7.0286984 2.109 10.276-.35409841.1558965-.68953999.3511235-1 .582-2.45660424 2.0050057-2.83321121 5.6173948-.843 8.086zm55.434-6.352c.6932239.5278304 1.146554 1.310986 1.259 2.175.2653187 2.3043627-1.3074676 4.4176164-3.591 4.825-.8585561.1427976-1.7384399-.0662694-2.441-.58-.1918063-.1403326-.3654654-.3039148-.517-.487 1.814754-1.881399 3.353114-4.0109958 4.569-6.325.2570871.0971712.4996701.229061.721.392zm-36.718-36.257c.0353541 2.6293534.9766285 5.166026 2.665 7.182.168.206.343.408.525.606 1.1593964 1.2531625 2.4979018 2.3278084 3.972 3.189 1.0680889.6218462 2.2500767 1.0230964 3.476 1.18.0431008.005622.0865351.0082949.13.008.5276824-.0001254.9644569-.4102431.9977679-.9368731.0333109-.52663-.3483069-.9885135-.8717679-1.0551269-.9578354-.1242941-1.8815908-.4369707-2.718-.92-1.3037559-.7615039-2.4878702-1.7114237-3.514-2.819-.1546667-.1693333-.3036667-.3416667-.447-.517-2.363-2.9-3.413-7.42-.133-10.5 3.0234031-2.57017994 7.3286923-2.98254561 10.785-1.033 1.17194.68249003 2.1068362 1.70742101 2.679 2.937.8901432 1.74214107.4440606 3.8692594-1.071 5.107-2.191 1.713-6.264 1.662-8.718-.109-1.247-.9-2.359-2.354-1.739-3.749.782-1.753 3.89-2.255 6.042-1.519.4968304.12118893.9091787.46629046 1.116.934.1253687.53792533.6630747.8723686 1.201.74699996.5379253-.12536863.8723686-.66307462.747-1.20099996-.3453911-1.15259532-1.2572518-2.04784932-2.416-2.372-3.084-1.055-7.24-.264-8.516 2.6-.913 2.05.027 4.477 2.394 6.186 3.213 2.318 8.2 2.346 11.12.062 1.2642417-.9814266 2.0686222-2.4400898 2.224-4.033 10.272 3.813 17.088 13.163 17.088 23.691 0 14.061-12.112 25.5-27 25.5s-27-11.439-27-25.5c0-10.5 6.766-19.817 16.982-23.665zm-16.682 36.128c.20528169-.1509506.4278581-.2768422.663-.375 1.21119643 2.3309572 2.74867981 4.4772382 4.566 6.374-.13869318.1577516-.29353913.3005316-.462.426-.70220527.5085224-1.57857508.715193-2.434.574-1.10812446-.1838468-2.0987143-.7981131-2.756-1.709-1.33133811-1.5816724-1.14276218-3.9399861.423-5.29z"/><path id="Shape" d="m20 34c0 1.6568542 1.3431458 3 3 3s3-1.3431458 3-3-1.3431458-3-3-3-3 1.3431458-3 3zm4 0c0 .5522847-.4477153 1-1 1s-1-.4477153-1-1 .4477153-1 1-1 1 .4477153 1 1z"/><path id="Shape" d="m39 37c1.6568542 0 3-1.3431458 3-3s-1.3431458-3-3-3-3 1.3431458-3 3 1.3431458 3 3 3zm0-4c.5522847 0 1 .4477153 1 1s-.4477153 1-1 1-1-.4477153-1-1 .4477153-1 1-1z"/><path id="Shape" d="m17.679 28.944c.5218588.1776001 1.0890197-.1006129 1.268-.622.4512114-1.3225207 1.6580128-2.2403697 3.053-2.322.5522847 0 1-.4477153 1-1s-.4477153-1-1-1c-3.678 0-4.9 3.533-4.949 3.684-.1718521.5211675.1084017 1.0834602.628 1.26z"/><path id="Shape" d="m40 26c1.3949872.0816303 2.6017886.9994793 3.053 2.322.1761789.5246705.7443295.8071788 1.269.6309999.5246705-.1761788.8071788-.7443294.631-1.2689999-.053-.151-1.275-3.684-4.953-3.684-.5522847 0-1 .4477153-1 1s.4477153 1 1 1z"/><path id="Shape" d="m27.968 39.981c.5443869.0127512 1.0008789-.4083538 1.032-.952.011-.172.16-1.029 2-1.029s1.989.857 2 1c0 .5522847.4477153 1 1 1s1-.4477153 1-1c0-1.038-.836-3-4-3s-4 1.962-4 3c.0015636.5360926.4319759.9722853.968.981z"/><path id="Shape" d="m14 47c2.342115-.1485494 4.1270679-2.1566214 4-4.5.1270679-2.3433786-1.657885-4.3514506-4-4.5-2.342115.1485494-4.1270679 2.1566214-4 4.5-.1270679 2.3433786 1.657885 4.3514506 4 4.5zm0-7c1.2324358.1564335 2.1179166 1.2632846 2 2.5.1179166 1.2367154-.7675642 2.3435665-2 2.5-1.2324358-.1564335-2.1179166-1.2632846-2-2.5-.1179166-1.2367154.7675642-2.3435665 2-2.5z"/><path id="Shape" d="m48 47c2.342115-.1485494 4.1270679-2.1566214 4-4.5.1270679-2.3433786-1.657885-4.3514506-4-4.5-2.342115.1485494-4.1270679 2.1566214-4 4.5-.1270679 2.3433786 1.657885 4.3514506 4 4.5zm0-7c1.2324358.1564335 2.1179166 1.2632846 2 2.5.1179166 1.2367154-.7675642 2.3435665-2 2.5-1.2324358-.1564335-2.1179166-1.2632846-2-2.5-.1179166-1.2367154.7675642-2.3435665 2-2.5z"/><path id="Shape" d="m37.948 45h-.083c-.3814676-1.5025164-1.6004344-2.6469562-3.124-2.933-.947688-.1738014-1.926294-.0039636-2.76.479-.6060903.3540223-1.3559097.3540223-1.962 0-.8334313-.4837193-1.812316-.6536055-2.76-.479-1.5235656.2860438-2.7425324 1.4304836-3.124 2.933h-.083c-.8606293-.0008332-1.6801688.3679904-2.2502758 1.0127087-.5701069.6447182-.8358689 1.5032323-.7297242 2.3572913.315 2.594 1.914 8.63 9.928 8.63s9.613-6.036 9.928-8.63c.1061447-.854059-.1596173-1.7125731-.7297242-2.3572913-.570107-.6447183-1.3896465-1.0135419-2.2502758-1.0127087zm-10.332-.965c.1267324-.0228575.2552235-.034569.384-.035.3539317-.0008714.7016403.0930479 1.007.272 1.2302072.7194268 2.7527928.7194268 3.983 0 .4682767-.27458 1.028051-.3470168 1.550796-.2006783.5227449.1463384.9635499.4988795 1.221204.9766783-.4417501.0998142-.7568027.4904002-.7608547.9432684s.3039614.849029.7438547.9567316c-.2418828.4330321-.632769.7635087-1.1.93-.434216.1960439-.6940969.6481158-.645 1.122 0 1.084-1.374 2-3 2s-3-.916-3-1.917c.006-.037.022-.149.025-.186.0331205-.4519444-.2418072-.8696704-.67-1.018-.467231-.1664913-.8581172-.4969679-1.1-.93.4398933-.1077026.7479067-.5038634.7438547-.9567316s-.3191046-.8434542-.7608547-.9432684c.2851594-.5265629.7904489-.8983797 1.378-1.014zm3.384 10.965c-5.875 0-7.562-3.737-7.943-6.872-.0369979-.2865915.0517874-.5751766.2434827-.7914089.1916954-.2162324.4675573-.3389694.7565173-.3365911h.083c.2681239 1.0494048.9548942 1.9429292 1.9 2.472.288 1.984 2.402 3.528 4.96 3.528s4.672-1.544 4.965-3.528c.9447924-.5294332 1.6314453-1.4228048 1.9-2.472h.083c.2880903-.0009295.5625853.1224331.7531614.3384831.190576.2160501.2787158.5037951.2418386.7895169-.381 3.135-2.068 6.872-7.943 6.872z"/></g></g></svg>