<?xml version="1.0" standalone="no"?>
<!DOCTYPE svg PUBLIC "-//W3C//DTD SVG 20010904//EN"
 "http://www.w3.org/TR/2001/REC-SVG-20010904/DTD/svg10.dtd">
<svg version="1.0" xmlns="http://www.w3.org/2000/svg"
 width="1280.000000pt" height="1164.000000pt" viewBox="0 0 1280.000000 1164.000000"
 preserveAspectRatio="xMidYMid meet">
<metadata>
Created by potrace 1.15, written by Peter Selinger 2001-2017
</metadata>
<g transform="translate(0.000000,1164.000000) scale(0.100000,-0.100000)"
fill="#000000" stroke="none">
<path d="M6108 11630 c-699 -68 -1319 -338 -1816 -794 -1014 -927 -1287 -2408
-672 -3636 26 -53 406 -695 844 -1427 438 -733 796 -1336 796 -1340 0 -4 -690
-7 -1532 -5 -843 2 -1695 0 -1894 -4 l-361 -6 -26 -102 c-15 -55 -51 -191 -81
-301 -54 -197 -250 -923 -347 -1285 -28 -102 -73 -268 -100 -370 -28 -102 -72
-266 -99 -365 -27 -99 -100 -371 -164 -605 -255 -944 -238 -874 -219 -914 13
-28 25 -38 52 -43 20 -5 2686 -8 5926 -8 4526 0 5896 3 5917 12 16 7 30 25 38
47 12 37 0 84 -429 1646 -174 636 -408 1491 -526 1920 l-102 375 -1927 0
c-1059 0 -1926 1 -1926 2 0 2 357 600 793 1330 437 731 814 1366 839 1413 167
309 290 730 329 1124 15 157 6 565 -16 706 -106 681 -380 1237 -843 1712 -487
499 -1103 807 -1807 903 -138 19 -517 28 -647 15z m448 -1910 c157 -25 342
-98 484 -192 82 -54 226 -192 289 -277 121 -163 194 -342 227 -556 55 -361
-72 -739 -341 -1010 -227 -228 -530 -355 -850 -355 -458 0 -874 258 -1079 668
-177 353 -165 787 31 1127 254 441 736 673 1239 595z"/>
</g>
</svg>
