<?xml version="1.0" encoding="iso-8859-1"?>
<!-- Generator: Adobe Illustrator 19.0.0, SVG Export Plug-In . SVG Version: 6.00 Build 0)  -->
<svg version="1.1" id="Layer_1" xmlns="http://www.w3.org/2000/svg" xmlns:xlink="http://www.w3.org/1999/xlink" x="0px" y="0px"
	 viewBox="0 0 390.206 390.206" style="enable-background:new 0 0 390.206 390.206;" xml:space="preserve">
<path style="fill:#FFFFFF;" d="M68.519,21.657v303.515h242.23c5.948,0,10.861-4.848,10.861-10.861V32.517
	c0-5.947-4.848-10.861-10.861-10.861H68.519z"/>
<rect x="90.24" y="43.378" style="fill:#56ACE0;" width="209.713" height="260.137"/>
<g>
	<path style="fill:#FFC10D;" d="M68.519,368.549h242.23c5.948,0,10.861-4.849,10.861-10.861v-12.477
		c-3.232,1.099-7.046,1.616-10.861,1.616H68.519V368.549z"/>
	<path style="fill:#FFC10D;" d="M195.355,63.935c-36.331,0-65.552,29.285-65.552,65.552s29.22,65.616,65.552,65.616
		s65.552-29.285,65.552-65.552S231.686,63.935,195.355,63.935z"/>
</g>
<g>
	<path style="fill:#194F82;" d="M114.03,244.428h-20.04v55.855h12.477v-15.709h7.564c16.808,0,24.954-6.529,24.372-20.04
		C138.983,251.475,131.42,243.911,114.03,244.428z M115.129,273.713h-8.663v-18.941h7.046c8.145,0,11.895,1.616,11.895,8.663
		C125.989,272.032,121.658,273.713,115.129,273.713z"/>
	<path style="fill:#194F82;" d="M162.321,244.428l-24.372,55.855h13.576l5.43-11.895h23.273l5.43,11.895h13.576l-24.372-55.855
		L162.321,244.428L162.321,244.428z M161.222,276.945l7.046-16.291l7.046,16.291H161.222z"/>
	<path style="fill:#194F82;" d="M228.389,266.667c-7.046-1.616-12.477-2.715-12.477-7.046c0-2.715,2.715-5.947,6.529-5.43
		c5.43,0,10.279,1.616,15.192,5.43l6.529-9.244c-1.616-3.232-16.291-8.663-21.139-7.564c-11.378,0-20.04,5.947-20.04,16.808
		c-0.517,11.895,8.145,15.709,18.941,17.907c5.947,1.616,10.861,3.232,10.279,7.046c0,3.814-2.715,5.43-7.564,5.43
		s-10.861-2.715-16.808-8.145l-7.564,9.244c7.046,6.529,15.192,9.762,23.855,9.762c9.244,0.517,20.04-4.331,20.622-16.808
		C245.779,274.747,239.25,269.382,228.389,266.667z"/>
	<path style="fill:#194F82;" d="M279.331,266.667c-7.046-1.616-12.477-2.715-12.477-7.046c0-2.715,2.715-5.947,6.529-5.43
		c5.43,0,10.279,1.616,15.192,5.43l6.529-9.244c-1.616-3.232-16.291-8.663-21.139-7.564c-11.378,0-20.04,5.947-20.04,16.808
		c-0.517,11.895,8.145,15.709,18.941,17.907c5.947,1.616,10.861,3.232,10.279,7.046c0,3.814-2.715,5.43-7.564,5.43
		c-4.848,0-10.861-2.715-16.808-8.145l-7.564,9.244c7.046,6.529,15.192,9.762,23.855,9.762c9.244,0.517,20.04-4.331,20.622-16.808
		C297.238,274.747,290.191,269.382,279.331,266.667z"/>
	<path style="fill:#194F82;" d="M311.331,0H57.723c-5.947,0-10.861,4.848-10.861,10.861v368.485c0,5.947,4.848,10.861,10.861,10.861
		h253.091c17.907,0,32.517-14.61,32.517-32.517v-43.378V32.517C343.848,14.61,329.238,0,311.331,0z M322.191,357.689
		c0,5.947-4.848,10.861-10.861,10.861H68.519v-21.657h242.23c5.43,0,10.861-1.616,10.861-1.616v12.477h0.582V357.689z
		 M322.191,314.311c0,5.947-4.848,10.861-10.861,10.861H68.519V21.657h242.23c5.948,0,10.861,4.848,10.861,10.861v281.794H322.191z"
		/>
	<path style="fill:#194F82;" d="M195.355,216.76c48.226,0,87.273-39.046,87.273-87.273s-39.046-87.273-87.273-87.273
		s-87.273,39.046-87.273,87.273S147.129,216.76,195.355,216.76z M140.599,165.818h19.523c1.616,8.145,3.232,15.709,5.947,22.238
		C155.791,183.208,147.129,175.063,140.599,165.818z M195.355,195.103c-3.232-1.099-9.244-10.861-12.994-29.285h26.57
		C204.599,184.242,198.587,194.004,195.355,195.103z M224.64,188.057c2.715-6.529,4.331-14.093,5.947-22.238h19.523
		C243.581,175.063,234.919,183.208,224.64,188.057z M259.29,114.877c2.198,10.279,2.198,20.04,0,29.285h-25.988
		c0.517-9.762,0.517-19.523,0-29.285H259.29z M250.111,93.22h-19.523c-1.616-8.145-3.232-15.709-5.947-22.238
		C234.919,75.895,243.581,83.459,250.111,93.22z M195.355,63.935L195.355,63.935c3.232,1.099,9.244,10.861,13.576,29.285h-26.57
		C186.111,74.214,192.123,64.517,195.355,63.935z M179.064,114.877h32.517c0.517,9.762,0.517,19.523,0,29.285h-32.517
		C178.547,134.4,178.547,124.638,179.064,114.877z M166.07,70.465c-2.715,6.529-4.331,14.093-5.947,22.238h-19.523
		C147.129,83.459,155.791,75.895,166.07,70.465z M131.42,114.877h25.988c-0.517,10.279-0.517,20.04,0,29.285H131.42
		C129.222,134.4,129.222,124.638,131.42,114.877z"/>
</g>
<g>
</g>
<g>
</g>
<g>
</g>
<g>
</g>
<g>
</g>
<g>
</g>
<g>
</g>
<g>
</g>
<g>
</g>
<g>
</g>
<g>
</g>
<g>
</g>
<g>
</g>
<g>
</g>
<g>
</g>
</svg>
